# xmcd
#
# Track frame offsets:
#	150
#	14801
#	30949
#	46860
#	61073
#	75454
#	86461
#	106087
#	119673
#	135998
#	150099
#	168443
#
# Disc length: 2434 seconds
#
# Revision: 1
# Processed by: cddbd v1.5.2PL0 Copyright (c) Steve Scherf et al.
# Submitted via: audiograbber 1.83.01
#
DISCID=7e09800c
DTITLE=Rhonda Vincent - Good Thing Going
DYEAR=2008
DGENRE=Bluegrass
TTITLE0=I'm Leavin'
TTITLE1=World's Biggest Fool
TTITLE2=I Give All My Love To You
TTITLE3=Good Thing Going
TTITLE4=Scorn Of a Lover
TTITLE5=Hit Parade Of Love
TTITLE6=I Will See You Again
TTITLE7=Just One Of a Kind
TTITLE8=I Gotta Start Somewhere
TTITLE9=Who's Cryin' Baby
TTITLE10=The Water Is Wide
TTITLE11=Bluegrass Saturday Night
EXTD=
EXTT0=
EXTT1=
EXTT2=
EXTT3=
EXTT4=
EXTT5=
EXTT6=
EXTT7=
EXTT8=
EXTT9=
EXTT10=
EXTT11=
PLAYORDER=
